<?xml version="1.0" ?><svg height="512" id="svg2" version="1.1" viewBox="0 0 511.99998 512.00001" width="512" xml:space="preserve" xmlns="http://www.w3.org/2000/svg" xmlns:cc="http://creativecommons.org/ns#" xmlns:dc="http://purl.org/dc/elements/1.1/" xmlns:rdf="http://www.w3.org/1999/02/22-rdf-syntax-ns#" xmlns:svg="http://www.w3.org/2000/svg" xmlns:xlink="http://www.w3.org/1999/xlink"><defs id="defs20"/><g id="g2990"><g id="g2999" style="fill:#55ac89;fill-opacity:1" transform="matrix(1.287626,0,0,1.287626,-1.7003e-5,0.00707994)"><g id="g8" style="fill:#55ac89;fill-opacity:1"><g id="Layer_1" style="fill:#55ac89;fill-opacity:1"><g id="g11" style="fill:#55ac89;fill-opacity:1"><path d="m 0.25,341.211 v -284.8 c 0,-31 25.16,-56.16 56.16,-56.16 h 284.8 c 31,0 56.17,25.16 56.17,56.16 v 284.8 c 0,31 -25.17,56.16 -56.17,56.16 H 56.41 c -31,0 -56.16,-25.16 -56.16,-56.16 z m 179.79,4.92 v -44.14 h 40.26 v 44.14 c 0,14.351 10.141,25.99 22.62,25.99 l 0,0 c 12.49,0 22.63,-11.64 22.63,-25.99 v -44.14 h 7.221 c 10.89,0 19.72,-8.94 19.72,-19.95 v -142.96 c 0,-1.19 -0.101,-2.35 -0.3,-3.49 -0.021,-0.26 -0.051,-0.52 -0.07,-0.78 h -186.1 c -0.24,2.77 -0.37,5.57 -0.37,8.41 v 40.78 c 0,3.14 0.15,6.23 0.45,9.29 v 88.75 c 0,11.01 8.83,19.95 19.72,19.95 h 8.98 v 44.14 c 0,14.351 10.13,25.99 22.62,25.99 l 0,0 c 12.489,0 22.619,-11.64 22.619,-25.99 z M 89.79,237.681 v -76.689 c 0,-14.34 -10.14,-25.98 -22.62,-25.98 h -0.01 c -12.48,0 -22.62,11.64 -22.62,25.98 v 76.689 c 0,14.351 10.14,25.99 22.62,25.99 h 0.01 c 12.48,0 22.62,-11.64 22.62,-25.99 z m 264.58,0 v -76.689 c 0,-14.34 -10.13,-25.98 -22.62,-25.98 l 0,0 c -12.49,0 -22.62,11.64 -22.62,25.98 v 76.689 c 0,14.351 10.13,25.99 22.62,25.99 l 0,0 c 12.49,0 22.62,-11.64 22.62,-25.99 z M 242,59.251 l 26.19,-26.2 -9.16,-9.16 -29.83,29.83 c -9.45,-3.26 -19.59,-5.03 -30.13,-5.03 l 0,0 c -10.04,0 -19.71,1.6 -28.78,4.57 l -29.37,-29.37 -9.16,9.16 25.58,25.58 c -23.61,11.96 -41.52,33.74 -48.5,60.03 H 289.3 C 282.44,92.811 265.01,71.331 242,59.251 z m -13.71,26.51 c 0.91,-5.72 6.29,-9.62 12,-8.7 5.72,0.91 9.62,6.29 8.71,12 -0.92,5.71 -6.29,9.61 -12.01,8.7 -5.71,-0.91 -9.61,-6.29 -8.7,-12 z m -78.83,-0.11 c 0.91,-5.71 6.29,-9.61 12,-8.7 5.72,0.91 9.62,6.29 8.7,12.01 -0.91,5.71 -6.29,9.61 -12,8.7 -5.71,-0.91 -9.61,-6.29 -8.7,-12.01 z" id="path13" style="fill:#55ac89;fill-opacity:1;fill-rule:evenodd"/><path d="M 56.41,397.62 C 25.271,397.62 0,372.349 0,341.21 l 0,0 V 56.412 C 0,25.271 25.271,0 56.41,0 l 0,0 h 284.8 c 31.137,0 56.418,25.271 56.421,56.412 l 0,0 -0.003,284.798 c 0,31.139 -25.281,56.41 -56.418,56.41 l 0,0 H 56.41 l 0,0 z M 0.499,341.21 c 0,15.433 6.263,29.407 16.382,39.528 l 0,0 c 10.121,10.122 24.096,16.381 39.529,16.381 l 0,0 284.8,0.002 c 15.431,-0.002 29.41,-6.261 39.533,-16.383 l 0,0 c 10.121,-10.121 16.386,-24.098 16.386,-39.528 l 0,0 V 56.412 c 0,-15.432 -6.265,-29.409 -16.386,-39.528 l 0,0 C 370.62,6.762 356.641,0.501 341.21,0.501 l 0,0 H 56.41 c -15.433,0 -29.408,6.261 -39.529,16.382 l 0,0 C 6.762,27.002 0.499,40.979 0.499,56.412 l 0,0 V 341.21 l 0,0 z m 219.55,4.92 v -43.89 h -39.76 v 43.89 c -0.023,14.464 -10.213,26.233 -22.87,26.24 l 0,0 c -12.655,-0.007 -22.848,-11.776 -22.869,-26.24 l 0,0 -0.002,-43.89 h -8.729 c -11.031,0 -19.95,-9.054 -19.969,-20.2 l 0,0 v -88.726 c -0.301,-3.068 -0.451,-6.166 -0.451,-9.314 l 0,0 v -40.779 c 0,-2.847 0.131,-5.654 0.371,-8.432 l 0,0 0.249,-0.228 h 186.1 l 0.25,0.231 c 0.02,0.253 0.049,0.512 0.067,0.754 l 0,0 c 0.2,1.156 0.304,2.33 0.304,3.534 l 0,0 v 142.96 c -0.021,11.146 -8.94,20.2 -19.971,20.2 l 0,0 -6.971,-0.003 v 43.893 c -0.023,14.464 -10.223,26.233 -22.879,26.24 l 0,0 c -12.646,-0.007 -22.847,-11.776 -22.87,-26.24 l 0,0 z m 0.251,-44.389 0.248,0.25 v 44.139 c 0.003,14.238 10.059,25.714 22.372,25.741 l 0,0 c 12.324,-0.027 22.378,-11.503 22.378,-25.741 l 0,0 v -44.139 l 0.252,-0.25 h 7.22 c 10.748,-0.021 19.469,-8.828 19.469,-19.701 l 0,0 V 139.081 c 0,-1.175 -0.099,-2.321 -0.299,-3.471 l 0,0 c -0.014,-0.179 -0.033,-0.363 -0.05,-0.55 l 0,0 H 106.25 c -0.228,2.689 -0.352,5.406 -0.352,8.161 l 0,0 V 184 c 0,3.131 0.15,6.215 0.451,9.292 l 0,0 v 88.749 c 0,10.873 8.721,19.68 19.47,19.701 l 0,0 h 8.981 l 0.249,0.25 v 44.139 c 0.002,14.238 10.048,25.714 22.37,25.741 l 0,0 c 12.324,-0.027 22.369,-11.503 22.371,-25.741 l 0,0 v -44.139 l 0.251,-0.25 H 220.3 l 0,-0.001 z m 88.578,-64.06 v -76.69 c 0.023,-14.453 10.214,-26.223 22.872,-26.229 l 0,0 c 12.655,0.006 22.846,11.776 22.869,26.229 l 0,0 v 76.69 c -0.023,14.463 -10.214,26.233 -22.869,26.239 l 0,0 c -12.658,-0.006 -22.849,-11.776 -22.872,-26.239 l 0,0 z m 0.501,-76.69 v 76.69 c 0.002,14.237 10.045,25.713 22.371,25.738 l 0,0 c 12.322,-0.025 22.367,-11.501 22.369,-25.738 l 0,0 v -76.69 c -0.002,-14.228 -10.047,-25.705 -22.369,-25.73 l 0,0 c -12.326,0.025 -22.369,11.502 -22.371,25.73 l 0,0 z M 67.16,263.92 C 54.514,263.914 44.313,252.144 44.29,237.681 l 0,0 v -76.69 c 0.023,-14.453 10.224,-26.223 22.87,-26.229 l 0,0 h 0.009 c 12.646,0.006 22.847,11.776 22.87,26.229 l 0,0 v 76.69 c -0.023,14.463 -10.224,26.233 -22.87,26.239 l 0,0 H 67.16 l 0,0 z M 44.789,160.991 v 76.69 c 0.002,14.237 10.058,25.713 22.371,25.74 l 0,0 0.009,-0.002 c 12.313,-0.025 22.369,-11.501 22.371,-25.738 l 0,0 v -76.69 C 89.538,146.763 79.482,135.286 67.169,135.261 l 0,0 H 67.16 c -12.313,0.025 -22.369,11.502 -22.371,25.73 l 0,0 z m 64.05,-42.079 -0.24,-0.316 c 6.967,-26.246 24.797,-48.006 48.32,-60.031 l 0,0 -25.336,-25.337 v -0.354 l 9.159,-9.161 h 0.354 l 29.263,29.263 c 9.051,-2.947 18.699,-4.535 28.712,-4.535 l 0,0 c 10.512,0 20.628,1.757 30.063,4.992 l 0,0 29.719,-29.72 h 0.355 l 9.159,9.161 v 0.354 l -25.95,25.96 c 22.924,12.142 40.276,33.603 47.125,59.408 l 0,0 -0.242,0.316 H 108.839 l 0,0 z m 180.134,-0.501 c -6.897,-25.64 -24.236,-46.94 -47.089,-58.939 l 0,0 0.115,-0.221 0.178,0.177 -0.178,-0.177 -0.115,0.221 -0.062,-0.398 26.013,-26.023 -8.807,-8.805 -29.652,29.651 -0.259,0.062 C 219.693,50.707 209.581,48.94 199.07,48.94 l 0,0 c -10.014,0 -19.657,1.596 -28.702,4.559 l 0,0 -0.255,-0.061 -29.194,-29.194 -8.805,8.807 25.402,25.402 -0.063,0.4 C 134,70.733 116.186,92.329 109.165,118.411 l 0,0 h 179.808 l 0,0 z M 236.949,98.008 c -5.275,-0.842 -9.043,-5.408 -9.043,-10.591 l 0,0 c 0,-0.56 0.044,-1.126 0.137,-1.697 l 0,0 h 0.001 c 0.839,-5.281 5.397,-9.045 10.571,-9.045 l 0,0 c 0.564,0 1.137,0.044 1.714,0.139 l 0,0 c 5.284,0.84 9.05,5.408 9.05,10.589 l 0,0 c 0,0.56 -0.045,1.126 -0.133,1.697 l 0,0 c -0.854,5.275 -5.412,9.041 -10.598,9.041 l 0,0 c -0.561,0 -1.127,-0.044 -1.699,-0.133 l 0,0 z m -8.542,-10.591 c -0.002,4.938 3.591,9.295 8.62,10.096 l 0,0 c 0.543,0.086 1.085,0.128 1.621,0.128 l 0,0 c 4.943,0 9.294,-3.59 10.103,-8.62 l 0,0 c 0.086,-0.545 0.126,-1.086 0.126,-1.619 l 0,0 c 0.003,-4.938 -3.59,-9.293 -8.628,-10.096 l 0,0 c -0.552,-0.09 -1.097,-0.13 -1.634,-0.132 l 0,0 c -4.93,0 -9.279,3.593 -10.079,8.626 l 0,0 c -0.089,0.543 -0.129,1.082 -0.129,1.617 l 0,0 z m -70.287,10.49 c -5.277,-0.842 -9.043,-5.408 -9.043,-10.597 l 0,0 c 0,-0.563 0.044,-1.129 0.135,-1.7 l 0,0 c 0.842,-5.275 5.408,-9.042 10.589,-9.042 l 0,0 c 0.56,0 1.126,0.044 1.697,0.137 l 0,0 c 5.28,0.84 9.045,5.397 9.045,10.58 l 0,0 c 0,0.566 -0.044,1.14 -0.137,1.714 l 0,0 c -0.842,5.277 -5.408,9.043 -10.589,9.043 l 0,0 c -0.562,0 -1.129,-0.044 -1.697,-0.135 l 0,0 z M 149.579,87.31 c -0.002,4.945 3.59,9.302 8.62,10.104 l 0,0 c 0.543,0.086 1.084,0.128 1.619,0.126 l 0,0 c 4.937,0.002 9.293,-3.59 10.096,-8.62 l 0,0 c 0.086,-0.552 0.13,-1.097 0.13,-1.636 l 0,0 c 0,-4.938 -3.591,-9.287 -8.624,-10.087 l 0,0 c -0.545,-0.088 -1.084,-0.128 -1.619,-0.128 l 0,0 c -4.937,0 -9.293,3.591 -10.094,8.622 l 0,0 c -0.089,0.543 -0.128,1.084 -0.128,1.619 l 0,0 z" id="path15" style="fill:#55ac89;fill-opacity:1"/></g></g><g id="Guides" style="fill:#55ac89;fill-opacity:1"/></g></g></g></svg>